<svg width="30" height="30" viewBox="0 0 30 30" fill="none" xmlns="http://www.w3.org/2000/svg">
<path d="M15 30C23.2843 30 30 23.2843 30 15C30 6.71573 23.2843 0 15 0C6.71573 0 0 6.71573 0 15C0 23.2843 6.71573 30 15 30Z" fill="#52ADF6"/>
<path d="M16.7956 27V16.0703H20.3496L20.8779 11.7909H16.7956V9.06518C16.7956 7.83032 17.1273 6.98485 18.8355 6.98485H21V3.16959C19.9468 3.05249 18.8882 2.99595 17.8291 3.00023C14.6877 3.00023 12.5308 4.98987 12.5308 8.64245V11.7829H9V16.0623H12.5386V27H16.7956Z" fill="white"/>
</svg>
