<svg width="30" height="30" viewBox="0 0 30 30" fill="none" xmlns="http://www.w3.org/2000/svg">
<g clip-path="url(#clip0_61:207)">
<path d="M15 30.0001C23.2843 30.0001 30.0001 23.2843 30.0001 15C30.0001 6.71574 23.2843 0 15 0C6.71574 0 0 6.71574 0 15C0 23.2843 6.71574 30.0001 15 30.0001Z" fill="#52ADF6"/>
<path d="M15.4255 8.84284C12.1805 8.84284 9.56165 11.5927 9.56165 15C9.56165 18.4073 12.1805 21.1572 15.4255 21.1572C18.6705 21.1572 21.2894 18.4073 21.2894 15C21.2894 11.5927 18.6705 8.84284 15.4255 8.84284ZM15.4255 19.0017C13.327 19.0017 11.6144 17.2035 11.6144 15C11.6144 12.7965 13.327 10.9983 15.4255 10.9983C17.524 10.9983 19.2366 12.7965 19.2366 15C19.2366 17.2035 17.524 19.0017 15.4255 19.0017ZM21.5295 7.1557C20.7719 7.1557 20.16 7.79813 20.16 8.59367C20.16 9.38921 20.7719 10.0316 21.5295 10.0316C22.2872 10.0316 22.899 9.39221 22.899 8.59367C22.8992 8.40477 22.8639 8.21767 22.7952 8.0431C22.7265 7.86853 22.6256 7.70992 22.4984 7.57634C22.3712 7.44277 22.2201 7.33686 22.0539 7.26468C21.8876 7.1925 21.7094 7.15546 21.5295 7.1557ZM26.8559 15C26.8559 13.3429 26.8702 11.7008 26.7815 10.0467C26.6929 8.12536 26.2755 6.4202 24.9375 5.01525C23.5966 3.6073 21.9755 3.17201 20.1457 3.07895C18.5676 2.98588 17.0037 3.00089 15.4284 3.00089C13.8502 3.00089 12.2863 2.98588 10.711 3.07895C8.8812 3.17201 7.25728 3.6103 5.91925 5.01525C4.57837 6.42321 4.16381 8.12536 4.07518 10.0467C3.98656 11.7038 4.00085 13.3459 4.00085 15C4.00085 16.6541 3.98656 18.2992 4.07518 19.9533C4.16381 21.8746 4.58123 23.5798 5.91925 24.9847C7.26013 26.3927 8.8812 26.828 10.711 26.9211C12.2892 27.0141 13.853 26.9991 15.4284 26.9991C17.0065 26.9991 18.5704 27.0141 20.1457 26.9211C21.9755 26.828 23.5994 26.3897 24.9375 24.9847C26.2783 23.5768 26.6929 21.8746 26.7815 19.9533C26.873 18.2992 26.8559 16.6571 26.8559 15ZM24.3399 22.0788C24.1312 22.6252 23.8796 23.0334 23.4765 23.4537C23.0734 23.877 22.6874 24.1412 22.1671 24.3603C20.6632 24.9877 17.0923 24.8467 15.4255 24.8467C13.7587 24.8467 10.1849 24.9877 8.68107 24.3633C8.16073 24.1442 7.7719 23.88 7.37164 23.4567C6.96851 23.0334 6.71692 22.6282 6.50821 22.0818C5.91354 20.4997 6.04791 16.7502 6.04791 15C6.04791 13.2498 5.91354 9.49728 6.50821 7.91822C6.71692 7.37185 6.96851 6.96357 7.37164 6.54329C7.77476 6.123 8.16073 5.85582 8.68107 5.63667C10.1849 5.01225 13.7587 5.15335 15.4255 5.15335C17.0923 5.15335 20.6661 5.01225 22.1699 5.63667C22.6903 5.85582 23.0791 6.12 23.4794 6.54329C23.8825 6.96657 24.1341 7.37185 24.3428 7.91822C24.9375 9.49728 24.8031 13.2498 24.8031 15C24.8031 16.7502 24.9375 20.4997 24.3399 22.0788Z" fill="white"/>
</g>
<defs>
<clipPath id="clip0_61:207">
<rect width="30" height="30" fill="white"/>
</clipPath>
</defs>
</svg>
